<svg width="64" height="64" viewBox="0 0 64 64" fill="none" xmlns="http://www.w3.org/2000/svg">
<path d="M7.801 14.539C9.387 12.555 12.633 12.169 14.946 11.712C16.887 11.328 18.995 11.1 20.827 10.318C23.423 9.318 23.307 5.387 24.095 5.387C24.683 5.387 26.792 8.406 28.644 8.406C30.224 8.406 31.224 4.709 32.097 4.709C32.974 4.709 33.968 8.406 35.548 8.406C37.402 8.406 39.511 5.387 40.099 5.387C40.884 5.387 40.771 9.318 43.367 10.318C45.199 11.099 47.306 11.328 49.248 11.712C51.561 12.169 54.807 12.555 56.393 14.539C56.975 15.266 58.122 14.426 57.6 13.652C56.944 12.677 55.963 11.994 54.926 11.484C51.549 9.826 43.287 10.174 42.592 5.831C41.678 0.137 36.737 5.893 35.821 5.893C34.76 5.893 34.246 2 32.096 2C29.944 2 29.432 5.893 28.373 5.893C27.457 5.893 22.514 0.137 21.602 5.831C20.907 10.175 12.643 9.826 9.268 11.484C8.231 11.994 7.248 12.677 6.594 13.652C6.072 14.426 7.219 15.266 7.801 14.539Z" fill="black"/>
<path d="M58 15.98C56.9391 15.98 55.9217 16.4014 55.1716 17.1516C54.4214 17.9017 54 18.9191 54 19.98C54 21.84 55.279 23.392 57 23.838V47.98H56.5V45.587C56.5 43.284 54.963 41.48 53 41.48V36C53 20.536 47.465 12 32 12C16.537 12 11 20.536 11 36V41.48C9.07 41.48 7.5 43.323 7.5 45.587V47.98H7V23.839C7.85699 23.6195 8.61673 23.1214 9.15979 22.4231C9.70284 21.7247 9.9984 20.8657 10 19.981C10 18.9201 9.57857 17.9027 8.82843 17.1526C8.07828 16.4024 7.06087 15.981 6 15.981C4.93913 15.981 3.92172 16.4024 3.17157 17.1526C2.42143 17.9027 2 18.9201 2 19.981C2 21.841 3.279 23.393 5 23.839V49.98H7.5V52.371C7.5 54.676 9.037 56.48 11 56.48V57C11 58.3261 11.5268 59.5979 12.4645 60.5355C13.4021 61.4732 14.6739 62 16 62H48C49.3261 62 50.5979 61.4732 51.5355 60.5355C52.4732 59.5979 53 58.3261 53 57V56.48C54.963 56.48 56.5 54.675 56.5 52.371V49.98H59V23.839C59.857 23.6195 60.6167 23.1214 61.1598 22.4231C61.7028 21.7247 61.9984 20.8657 62 19.981C62.0004 19.4556 61.8972 18.9352 61.6963 18.4496C61.4955 17.9641 61.2009 17.5229 60.8294 17.1513C60.4579 16.7797 60.0168 16.485 59.5313 16.284C59.0458 16.0831 58.5254 15.9797 58 15.98ZM6 22.48C4.621 22.48 3.5 21.359 3.5 19.98C3.5 18.601 4.621 17.48 6 17.48C7.379 17.48 8.5 18.601 8.5 19.98C8.5 21.359 7.379 22.48 6 22.48ZM11 54.98C9.896 54.98 9 53.812 9 52.371V45.587C9 44.148 9.896 42.98 11 42.98V54.98ZM50.5 57C50.5 58.379 49.379 59.5 48 59.5H16C15.3371 59.4995 14.7015 59.2359 14.2328 58.7672C13.7641 58.2985 13.5005 57.6629 13.5 57V36C13.5 36 13.169 31.91 14.537 26.222C16.521 17.977 22.136 14.5 32 14.5C41.864 14.5 47.272 18.029 49.463 26.222C50.843 31.382 50.5 36 50.5 36V57ZM55 47.98V52.371C55 53.812 54.105 54.98 53 54.98V42.98C54.105 42.98 55 44.148 55 45.587V47.98ZM58 22.48C56.621 22.48 55.5 21.359 55.5 19.98C55.5 18.601 56.621 17.48 58 17.48C59.379 17.48 60.5 18.601 60.5 19.98C60.5 21.359 59.379 22.48 58 22.48Z" fill="black"/>
<path d="M21.5 37.5C23.0913 37.5 24.6174 36.8679 25.7426 35.7426C26.8679 34.6174 27.5 33.0913 27.5 31.5C27.5 30.3133 27.1481 29.1533 26.4888 28.1666C25.8295 27.1799 24.8925 26.4108 23.7961 25.9567C22.6997 25.5026 21.4933 25.3838 20.3295 25.6153C19.1656 25.8468 18.0965 26.4182 17.2574 27.2574C16.4182 28.0965 15.8468 29.1656 15.6153 30.3295C15.3838 31.4933 15.5026 32.6997 15.9567 33.7961C16.4109 34.8925 17.1799 35.8295 18.1666 36.4888C19.1533 37.1481 20.3133 37.5 21.5 37.5ZM21.5 29.215C22.1063 29.215 22.6877 29.4558 23.1164 29.8846C23.5452 30.3133 23.786 30.8947 23.786 31.501C23.786 32.1073 23.5452 32.6887 23.1164 33.1174C22.6877 33.5462 22.1063 33.787 21.5 33.787C20.8937 33.787 20.3123 33.5462 19.8836 33.1174C19.4548 32.6887 19.214 32.1073 19.214 31.501C19.214 30.8947 19.4548 30.3133 19.8836 29.8846C20.3123 29.4558 20.8937 29.215 21.5 29.215ZM42.5 25.5C40.9087 25.5 39.3826 26.1321 38.2574 27.2574C37.1321 28.3826 36.5 29.9087 36.5 31.5C36.5 33.0913 37.1321 34.6174 38.2574 35.7426C39.3826 36.8679 40.9087 37.5 42.5 37.5C44.0913 37.5 45.6174 36.8679 46.7426 35.7426C47.8679 34.6174 48.5 33.0913 48.5 31.5C48.5 29.9087 47.8679 28.3826 46.7426 27.2574C45.6174 26.1321 44.0913 25.5 42.5 25.5ZM42.5 33.787C41.894 33.787 41.3128 33.5463 40.8843 33.1177C40.4557 32.6892 40.215 32.108 40.215 31.502C40.215 30.896 40.4557 30.3148 40.8843 29.8863C41.3128 29.4577 41.894 29.217 42.5 29.217C43.106 29.217 43.6872 29.4577 44.1157 29.8863C44.5443 30.3148 44.785 30.896 44.785 31.502C44.785 32.108 44.5443 32.6892 44.1157 33.1177C43.6872 33.5463 43.106 33.787 42.5 33.787ZM44.232 41.088H19.77C12.411 41.088 12.411 54.088 19.77 54.088H44.233C51.59 54.088 51.59 41.088 44.232 41.088ZM43.512 52.588H20.488C14.504 52.588 14.504 42.588 20.488 42.588H43.511C49.496 42.588 49.496 52.588 43.512 52.588Z" fill="black"/>
<path d="M19.193 44.514V50.662C19.193 51.896 21.193 51.896 21.193 50.662V44.514C21.193 43.279 19.193 43.279 19.193 44.514ZM23.916 44.514V50.662C23.916 51.896 25.916 51.896 25.916 50.662V44.514C25.916 43.279 23.916 43.279 23.916 44.514ZM28.639 44.514C28.639 45.749 28.639 50.662 28.639 50.662C28.639 51.896 30.639 51.896 30.639 50.662V44.514C30.639 43.279 28.639 43.279 28.639 44.514ZM33.361 44.514V50.662C33.361 51.896 35.361 51.896 35.361 50.662V44.514C35.361 43.279 33.361 43.279 33.361 44.514ZM38.084 44.514V50.662C38.084 51.896 40.084 51.896 40.084 50.662V44.514C40.084 43.279 38.084 43.279 38.084 44.514ZM42.807 44.514V50.662C42.807 51.896 44.807 51.896 44.807 50.662V44.514C44.807 43.279 42.807 43.279 42.807 44.514ZM32 39.48C32.668 39.48 33.295 39.22 33.768 38.748C34.241 38.276 34.5 37.646 34.5 36.978C34.5 36.31 34.239 35.683 33.768 35.212C32.823 34.267 31.178 34.267 30.233 35.212C29.761 35.683 29.501 36.31 29.501 36.978C29.501 37.646 29.761 38.275 30.233 38.748C30.705 39.221 31.332 39.48 32 39.48ZM32 35.48C32.4 35.48 32.777 35.636 33.061 35.919C33.2957 36.152 33.4458 36.4567 33.4877 36.7848C33.5295 37.1129 33.4607 37.4455 33.292 37.73L31.249 35.688C31.476 35.557 31.731 35.48 32 35.48ZM30.709 36.229L32.733 38.253C32.164 38.568 31.412 38.514 30.939 38.041C30.7993 37.9016 30.6885 37.7358 30.6132 37.5534C30.5378 37.371 30.4994 37.1754 30.5 36.978C30.5 36.709 30.576 36.454 30.709 36.229Z" fill="black"/>
<path fill-rule="evenodd" clip-rule="evenodd" d="M33.7684 38.7482C33.2954 39.2202 32.6684 39.4802 32.0004 39.4802C31.3324 39.4802 30.7054 39.2212 30.2334 38.7482C29.7614 38.2752 29.5014 37.6462 29.5014 36.9782C29.5014 36.3102 29.7614 35.6832 30.2334 35.2122C31.1784 34.2672 32.8234 34.2672 33.7684 35.2122C34.2394 35.6832 34.5004 36.3102 34.5004 36.9782C34.5004 37.6462 34.2414 38.2762 33.7684 38.7482ZM33.0614 35.9192C32.7774 35.6362 32.4004 35.4802 32.0004 35.4802C31.7314 35.4802 31.4764 35.5572 31.2494 35.6882L33.2924 37.7302C33.461 37.4457 33.5299 37.113 33.488 36.785C33.4462 36.4569 33.296 36.1522 33.0614 35.9192ZM32.7334 38.2532L30.7094 36.2292C30.5764 36.4542 30.5004 36.7092 30.5004 36.9782C30.4997 37.1756 30.5382 37.3711 30.6136 37.5536C30.6889 37.736 30.7996 37.9017 30.9394 38.0412C31.4124 38.5142 32.1644 38.5682 32.7334 38.2532Z" fill="black"/>
</svg>
