<svg width="189" height="182" viewBox="0 0 189 182" fill="none" xmlns="http://www.w3.org/2000/svg">
<g filter="url(#filter0_d_2_26)">
<path d="M86.8671 11.6978C54.8671 107.198 34.7571 1.44776 15.0171 27.6978C10.7571 33.3678 9.2371 39.0478 7.4571 45.7378C1.4371 68.3078 7.96709 88.2478 11.2371 97.8078C13.8071 105.328 16.7271 111.188 18.7971 114.968C30.8171 105.848 42.8471 96.7378 54.8671 87.6178C50.6171 79.9078 47.6171 73.1878 45.5571 68.1278C42.1071 59.6478 41.1571 55.4678 40.8271 53.9078C39.5271 47.7778 38.4471 42.6778 39.8471 37.1078C41.9271 28.8278 48.3871 23.9378 51.8471 21.3978C67.8771 9.62777 86.8771 12.1778 86.8671 11.6978Z" fill="#FF5C5C"/>
<path d="M86.8632 11.7094C86.8645 11.7055 86.8658 11.7016 86.8671 11.6978C86.8672 11.7019 86.8659 11.7058 86.8632 11.7094C67.6559 69.0231 52.7324 53.8322 39.6012 38.2074C39.6727 37.8426 39.7545 37.4762 39.8471 37.1078C41.9271 28.8278 48.3871 23.9378 51.8471 21.3978C67.7398 9.72858 86.5518 12.1351 86.8632 11.7094Z" fill="#FF5C5C"/>
<path d="M86.8632 11.7094C86.8645 11.7055 86.8658 11.7016 86.8671 11.6978C86.8672 11.7019 86.8659 11.7058 86.8632 11.7094C67.6559 69.0231 52.7324 53.8322 39.6012 38.2074C39.6727 37.8426 39.7545 37.4762 39.8471 37.1078C41.9271 28.8278 48.3871 23.9378 51.8471 21.3978C67.7398 9.72858 86.5518 12.1351 86.8632 11.7094Z" fill="#FF5C5C"/>
<path d="M86.8632 11.7094C86.8645 11.7055 86.8658 11.7016 86.8671 11.6978C86.8672 11.7019 86.8659 11.7058 86.8632 11.7094C67.6559 69.0231 52.7324 53.8322 39.6012 38.2074C39.6727 37.8426 39.7545 37.4762 39.8471 37.1078C41.9271 28.8278 48.3871 23.9378 51.8471 21.3978C67.7398 9.72858 86.5518 12.1351 86.8632 11.7094Z" fill="#FF5C5C"/>
<path d="M86.8671 11.6978C54.8671 107.198 34.7571 1.44776 15.0171 27.6978M86.8671 11.6978C86.8771 12.1778 67.8771 9.62777 51.8471 21.3978M86.8671 11.6978C86.8658 11.7016 86.8645 11.7055 86.8632 11.7094M86.8671 11.6978C86.8672 11.7019 86.8659 11.7058 86.8632 11.7094M15.0171 27.6978C10.7571 33.3678 9.2371 39.0478 7.4571 45.7378C1.4371 68.3078 7.96709 88.2478 11.2371 97.8078C13.8071 105.328 16.7271 111.188 18.7971 114.968C30.8171 105.848 42.8471 96.7378 54.8671 87.6178C50.6171 79.9078 47.6171 73.1878 45.5571 68.1278C42.1071 59.6478 41.1571 55.4678 40.8271 53.9078M15.0171 27.6978C22.9074 17.2053 30.8569 27.8026 39.6012 38.2074M40.8271 53.9078C39.5271 47.7778 38.4471 42.6778 39.8471 37.1078M40.8271 53.9078C39.6131 48.1833 38.5909 43.357 39.6012 38.2074M39.8471 37.1078C41.9271 28.8278 48.3871 23.9378 51.8471 21.3978M39.8471 37.1078C39.7545 37.4762 39.6727 37.8426 39.6012 38.2074M51.8471 21.3978C67.7398 9.72858 86.5518 12.1351 86.8632 11.7094M86.8632 11.7094C67.6559 69.0231 52.7324 53.8322 39.6012 38.2074" stroke="#327DED" stroke-miterlimit="10"/>
</g>
<g filter="url(#filter1_d_2_26)">
<path d="M35.0001 104.914C135.615 100.348 44.218 157.216 75.818 166.17C82.6422 168.1 88.4883 167.471 95.3702 166.721C118.593 164.202 134.84 150.925 142.579 144.43C148.668 139.323 153.082 134.487 155.862 131.194C143.023 123.268 130.19 115.329 117.351 107.404C111.691 114.147 106.503 119.367 102.526 123.112C95.8586 129.386 92.3018 131.779 90.9656 132.649C85.7159 136.07 81.3478 138.916 75.6476 139.617C67.1744 140.661 60.2849 136.397 56.6687 134.085C39.9127 123.374 35.4443 104.731 35.0001 104.914Z" fill="#E6DF44"/>
<path d="M35.0124 104.913C35.0083 104.913 35.0042 104.913 35.0001 104.914C35.0039 104.912 35.008 104.912 35.0124 104.913C95.3968 102.175 86.6048 121.57 76.7619 139.45C76.3959 139.515 76.0246 139.571 75.6476 139.617C67.1744 140.661 60.2849 136.397 56.6687 134.085C40.0562 123.465 35.5217 105.05 35.0124 104.913Z" fill="#FFF504"/>
<path d="M35.0124 104.913C35.0083 104.913 35.0042 104.913 35.0001 104.914C35.0039 104.912 35.008 104.912 35.0124 104.913C95.3968 102.175 86.6048 121.57 76.7619 139.45C76.3959 139.515 76.0246 139.571 75.6476 139.617C67.1744 140.661 60.2849 136.397 56.6687 134.085C40.0562 123.465 35.5217 105.05 35.0124 104.913Z" fill="#FFF504"/>
<path d="M35.0124 104.913C35.0083 104.913 35.0042 104.913 35.0001 104.914C35.0039 104.912 35.008 104.912 35.0124 104.913C95.3968 102.175 86.6048 121.57 76.7619 139.45C76.3959 139.515 76.0246 139.571 75.6476 139.617C67.1744 140.661 60.2849 136.397 56.6687 134.085C40.0562 123.465 35.5217 105.05 35.0124 104.913Z" fill="#FFF504"/>
<path d="M35.0001 104.914C135.615 100.348 44.218 157.216 75.818 166.17M35.0001 104.914C35.4443 104.731 39.9127 123.374 56.6687 134.085M35.0001 104.914C35.0042 104.913 35.0083 104.913 35.0124 104.913M35.0001 104.914C35.0039 104.912 35.008 104.912 35.0124 104.913M75.818 166.17C82.6422 168.1 88.4883 167.471 95.3702 166.721C118.593 164.202 134.84 150.925 142.579 144.43C148.668 139.323 153.082 134.487 155.862 131.194C143.023 123.268 130.19 115.329 117.351 107.404C111.691 114.147 106.503 119.367 102.526 123.112C95.8586 129.386 92.3018 131.779 90.9656 132.649M75.818 166.17C63.187 162.591 70.2074 151.357 76.7619 139.45M90.9656 132.649C85.7159 136.07 81.3478 138.916 75.6476 139.617M90.9656 132.649C86.0632 135.844 81.9296 138.537 76.7619 139.45M75.6476 139.617C67.1744 140.661 60.2849 136.397 56.6687 134.085M75.6476 139.617C76.0246 139.571 76.3959 139.515 76.7619 139.45M56.6687 134.085C40.0562 123.465 35.5217 105.05 35.0124 104.913M35.0124 104.913C95.3968 102.175 86.6048 121.57 76.7619 139.45" stroke="#1C62D1" stroke-miterlimit="10"/>
</g>
<g filter="url(#filter2_d_2_26)">
<path d="M155.077 121.869C81.2756 53.3305 185.907 78.6253 170.135 49.8161C166.726 43.5968 162.179 39.8695 156.818 35.4887C138.74 20.696 117.882 18.4208 107.824 17.4569C99.9137 16.6966 93.3709 16.9398 89.0737 17.2666C92.4244 31.978 95.762 46.6945 99.1127 61.406C107.889 60.7141 115.248 60.7527 120.708 60.963C129.856 61.3175 134.055 62.1761 135.613 62.5188C141.733 63.8627 146.825 64.9823 151.321 68.5549C158.007 73.8647 159.797 81.7665 160.684 85.9661C164.795 105.424 154.636 121.681 155.077 121.869Z" fill="#BDD1F2"/>
<path d="M155.068 121.861C155.071 121.864 155.074 121.867 155.077 121.869C155.073 121.868 155.07 121.865 155.068 121.861C110.778 80.7255 130.771 73.3955 150.421 67.8774C150.724 68.093 151.024 68.3186 151.321 68.5549C158.007 73.8647 159.797 81.7665 160.684 85.9661C164.76 105.257 154.809 121.402 155.068 121.861Z" fill="#BDD1F2"/>
<path d="M155.068 121.861C155.071 121.864 155.074 121.867 155.077 121.869C155.073 121.868 155.07 121.865 155.068 121.861C110.778 80.7255 130.771 73.3955 150.421 67.8774C150.724 68.093 151.024 68.3186 151.321 68.5549C158.007 73.8647 159.797 81.7665 160.684 85.9661C164.76 105.257 154.809 121.402 155.068 121.861Z" fill="#BDD1F2"/>
<path d="M155.068 121.861C155.071 121.864 155.074 121.867 155.077 121.869C155.073 121.868 155.07 121.865 155.068 121.861C110.778 80.7255 130.771 73.3955 150.421 67.8774C150.724 68.093 151.024 68.3186 151.321 68.5549C158.007 73.8647 159.797 81.7665 160.684 85.9661C164.76 105.257 154.809 121.402 155.068 121.861Z" fill="#BDD1F2"/>
<path d="M155.077 121.869C81.2756 53.3305 185.907 78.6253 170.135 49.8161M155.077 121.869C154.636 121.681 164.795 105.424 160.684 85.9661M155.077 121.869C155.074 121.867 155.071 121.864 155.068 121.861M155.077 121.869C155.073 121.868 155.07 121.865 155.068 121.861M170.135 49.8161C166.726 43.5968 162.179 39.8695 156.818 35.4887C138.74 20.696 117.882 18.4208 107.824 17.4569C99.9137 16.6966 93.3709 16.9398 89.0737 17.2666C92.4244 31.978 95.762 46.6945 99.1127 61.406C107.889 60.7141 115.248 60.7527 120.708 60.963C129.856 61.3175 134.055 62.1761 135.613 62.5188M170.135 49.8161C176.439 61.3315 163.506 64.2027 150.421 67.8774M135.613 62.5188C141.733 63.8627 146.825 64.9823 151.321 68.5549M135.613 62.5188C141.328 63.7739 146.147 64.8332 150.421 67.8774M151.321 68.5549C158.007 73.8647 159.797 81.7665 160.684 85.9661M151.321 68.5549C151.024 68.3186 150.724 68.093 150.421 67.8774M160.684 85.9661C164.76 105.257 154.809 121.402 155.068 121.861M155.068 121.861C110.778 80.7255 130.771 73.3955 150.421 67.8774" stroke="#1C62D1" stroke-miterlimit="10"/>
</g>
<g filter="url(#filter3_d_2_26)">
<path d="M39.5159 0.697754H28V165.471H39.5159V0.697754Z" fill="url(#paint0_linear_2_26)"/>
<path d="M145.516 0.697754H134V165.471H145.516V0.697754Z" fill="url(#paint1_linear_2_26)"/>
<path d="M146 154.671H28V165.47H146V154.671Z" fill="url(#paint2_linear_2_26)"/>
<path d="M146 0.697754H28V11.4969H146V0.697754Z" fill="white"/>
<mask id="mask0_2_26" style="mask-type:luminance" maskUnits="userSpaceOnUse" x="28" y="0" width="118" height="12">
<path d="M146 0.697754H28V11.4969H146V0.697754Z" fill="white"/>
</mask>
<g mask="url(#mask0_2_26)">
<path d="M146 -152.91H28V11.8628H146V-152.91Z" fill="white"/>
</g>
</g>
<defs>
<filter id="filter0_d_2_26" x="0.5" y="8.81128" width="90.8672" height="114.906" filterUnits="userSpaceOnUse" color-interpolation-filters="sRGB">
<feFlood flood-opacity="0" result="BackgroundImageFix"/>
<feColorMatrix in="SourceAlpha" type="matrix" values="0 0 0 0 0 0 0 0 0 0 0 0 0 0 0 0 0 0 127 0" result="hardAlpha"/>
<feOffset dy="4"/>
<feGaussianBlur stdDeviation="2"/>
<feComposite in2="hardAlpha" operator="out"/>
<feColorMatrix type="matrix" values="0 0 0 0 0 0 0 0 0 0 0 0 0 0 0 0 0 0 0.25 0"/>
<feBlend mode="normal" in2="BackgroundImageFix" result="effect1_dropShadow_2_26"/>
<feBlend mode="normal" in="SourceGraphic" in2="effect1_dropShadow_2_26" result="shape"/>
</filter>
<filter id="filter1_d_2_26" x="28.1489" y="104.153" width="132.469" height="71.7976" filterUnits="userSpaceOnUse" color-interpolation-filters="sRGB">
<feFlood flood-opacity="0" result="BackgroundImageFix"/>
<feColorMatrix in="SourceAlpha" type="matrix" values="0 0 0 0 0 0 0 0 0 0 0 0 0 0 0 0 0 0 127 0" result="hardAlpha"/>
<feOffset dy="4"/>
<feGaussianBlur stdDeviation="2"/>
<feComposite in2="hardAlpha" operator="out"/>
<feColorMatrix type="matrix" values="0 0 0 0 0 0 0 0 0 0 0 0 0 0 0 0 0 0 0.25 0"/>
<feBlend mode="normal" in2="BackgroundImageFix" result="effect1_dropShadow_2_26"/>
<feBlend mode="normal" in="SourceGraphic" in2="effect1_dropShadow_2_26" result="shape"/>
</filter>
<filter id="filter2_d_2_26" x="84.4575" y="16.4539" width="91.8232" height="115.007" filterUnits="userSpaceOnUse" color-interpolation-filters="sRGB">
<feFlood flood-opacity="0" result="BackgroundImageFix"/>
<feColorMatrix in="SourceAlpha" type="matrix" values="0 0 0 0 0 0 0 0 0 0 0 0 0 0 0 0 0 0 127 0" result="hardAlpha"/>
<feOffset dy="4"/>
<feGaussianBlur stdDeviation="2"/>
<feComposite in2="hardAlpha" operator="out"/>
<feColorMatrix type="matrix" values="0 0 0 0 0 0 0 0 0 0 0 0 0 0 0 0 0 0 0.25 0"/>
<feBlend mode="normal" in2="BackgroundImageFix" result="effect1_dropShadow_2_26"/>
<feBlend mode="normal" in="SourceGraphic" in2="effect1_dropShadow_2_26" result="shape"/>
</filter>
<filter id="filter3_d_2_26" x="24" y="0.697754" width="126" height="172.773" filterUnits="userSpaceOnUse" color-interpolation-filters="sRGB">
<feFlood flood-opacity="0" result="BackgroundImageFix"/>
<feColorMatrix in="SourceAlpha" type="matrix" values="0 0 0 0 0 0 0 0 0 0 0 0 0 0 0 0 0 0 127 0" result="hardAlpha"/>
<feOffset dy="4"/>
<feGaussianBlur stdDeviation="2"/>
<feComposite in2="hardAlpha" operator="out"/>
<feColorMatrix type="matrix" values="0 0 0 0 0 0 0 0 0 0 0 0 0 0 0 0 0 0 0.25 0"/>
<feBlend mode="normal" in2="BackgroundImageFix" result="effect1_dropShadow_2_26"/>
<feBlend mode="normal" in="SourceGraphic" in2="effect1_dropShadow_2_26" result="shape"/>
</filter>
<linearGradient id="paint0_linear_2_26" x1="33.7592" y1="165.469" x2="33.7592" y2="0.699679" gradientUnits="userSpaceOnUse">
<stop stop-color="#FF5C5C"/>
<stop offset="0.104167" stop-color="#3473D6"/>
<stop offset="0.1925" stop-color="#6997E1"/>
<stop offset="0.3309" stop-color="#FFF504"/>
<stop offset="0.4684" stop-color="#BDD1F2"/>
<stop offset="0.6047" stop-color="#CEFAFE"/>
<stop offset="0.7394" stop-color="#6A5050"/>
<stop offset="0.872" stop-color="#9EDF94"/>
<stop offset="1" stop-color="white"/>
</linearGradient>
<linearGradient id="paint1_linear_2_26" x1="139.759" y1="165.469" x2="139.759" y2="0.699679" gradientUnits="userSpaceOnUse">
<stop stop-color="#FF5C5C"/>
<stop offset="0.104167" stop-color="#3473D6"/>
<stop offset="0.1925" stop-color="#6997E1"/>
<stop offset="0.3309" stop-color="#FFF504"/>
<stop offset="0.4684" stop-color="#BDD1F2"/>
<stop offset="0.6047" stop-color="#CEFAFE"/>
<stop offset="0.7394" stop-color="#6A5050"/>
<stop offset="0.872" stop-color="#9EDF94"/>
<stop offset="1" stop-color="white"/>
</linearGradient>
<linearGradient id="paint2_linear_2_26" x1="28.0023" y1="160.07" x2="146" y2="160.07" gradientUnits="userSpaceOnUse">
<stop stop-color="#1C62D1"/>
<stop offset="0.0558" stop-color="#3473D6"/>
<stop offset="0.1925" stop-color="#6997E1"/>
<stop offset="0.3309" stop-color="#97B7EA"/>
<stop offset="0.4684" stop-color="#BDD1F2"/>
<stop offset="0.6047" stop-color="#DAE5F7"/>
<stop offset="0.7394" stop-color="#EEF4FC"/>
<stop offset="0.872" stop-color="#FBFCFE"/>
<stop offset="1" stop-color="white"/>
</linearGradient>
</defs>
</svg>
