<svg width="96" height="39" viewBox="0 0 96 39" fill="none" xmlns="http://www.w3.org/2000/svg">
<path d="M7.88254 7.87267C8.25734 6.6412 9.39324 5.79956 10.6805 5.79956H91.5255C93.4895 5.79956 94.8953 7.69687 94.3234 9.57577L87.5902 31.6993C87.2154 32.9308 86.0795 33.7725 84.7922 33.7725H3.94723C1.98324 33.7725 0.577443 31.8751 1.14928 29.9963L7.88254 7.87267Z" fill="white"/>
<path d="M10.5756 8.83997H77.4673L78.647 18.2656L75.7585 13.0967H9.35938L10.5756 8.83997Z" fill="#231D4F"/>
<path d="M46.4578 3.59021C46.7217 3.06745 46.5584 2.4301 46.0757 2.09861C45.593 1.76712 44.9395 1.84362 44.5464 2.27766L27.3222 21.2948C27.0116 21.6378 26.9323 22.1315 27.1198 22.5544C27.3074 22.9774 27.7266 23.25 28.1892 23.25H33.3746L26.8836 35.9773C26.6174 36.4994 26.7785 37.1379 27.2605 37.4711C27.7426 37.8044 28.3968 37.7296 28.7912 37.2961L46.0917 18.2777C46.4033 17.9351 46.4835 17.4409 46.2963 17.0173C46.109 16.5938 45.6894 16.3206 45.2263 16.3206H40.031L46.4578 3.59021Z" fill="url(#paint0_radial)" stroke="white" stroke-width="2.33973" stroke-linejoin="round"/>
<path d="M18.6438 30.8474H5.45457C5.30497 30.8474 5.15538 30.8058 5.00578 30.7227C4.87281 30.6396 4.74815 30.5316 4.6318 30.3986C4.53207 30.2656 4.44065 30.1243 4.35754 29.9747C4.29106 29.8418 4.25781 29.7088 4.25781 29.5758C4.25781 29.4761 4.26612 29.4179 4.28274 29.4013L6.77598 21.2983L11.2887 24.2902L10.5657 26.6089H14.4552L15.3527 23.7167L7.79821 17.9324L10.5657 8.88196H23.7549C23.9045 8.88196 24.0458 8.92351 24.1788 9.00662C24.3118 9.08973 24.4364 9.19777 24.5528 9.33074C24.6691 9.46371 24.7605 9.605 24.827 9.75459C24.8935 9.90418 24.9351 10.0372 24.9517 10.1535C24.9517 10.2532 24.9434 10.3114 24.9267 10.328L22.608 17.9324L18.0454 14.9156L18.5939 13.1205H14.7793L14.1061 15.2896L21.6357 21.0739L18.6438 30.8474Z" fill="#231D4F"/>
<path d="M34.608 15.1649H30.9472L31.5705 13.1205H28.3749L22.9397 30.8474H17.4546L22.8898 13.1205H17.2812L17.4047 8.88196H36.5278L34.608 15.1649Z" fill="#231D4F"/>
<path d="M26.1265 29.4013L32.4095 8.88196H45.5737C45.7233 8.88196 45.8646 8.92351 45.9976 9.00662C46.1306 9.08973 46.2469 9.19777 46.3466 9.33074C46.463 9.46371 46.5544 9.605 46.6209 9.75459C46.704 9.90418 46.7456 10.0372 46.7456 10.1535C46.7622 10.2532 46.7622 10.3114 46.7456 10.328L40.4626 30.8474H27.2983C27.1487 30.8474 26.9991 30.8058 26.8495 30.7227C26.7166 30.6396 26.5919 30.5316 26.4755 30.3986C26.3758 30.2656 26.2844 30.1243 26.2013 29.9747C26.1348 29.8418 26.1016 29.7088 26.1016 29.5758C26.1016 29.4761 26.1099 29.4179 26.1265 29.4013ZM36.5482 13.1205L32.4095 26.6089H36.2989L40.4377 13.1205H36.5482Z" fill="#231D4F"/>
<path d="M51.6816 21.3232L56.5684 18.9546L58.3635 13.1205H54.0751L52.0307 19.8023L50.3851 20.8495L50.8838 23.5173L48.6399 30.8474H43.1797L49.8689 8.88196H63.5245C63.6575 8.88196 63.7904 8.92351 63.9234 9.00662C64.073 9.08973 64.1977 9.19777 64.2974 9.33074C64.4138 9.46371 64.5052 9.605 64.5717 9.75459C64.6548 9.90418 64.6963 10.0372 64.6963 10.1535C64.6963 10.2699 64.688 10.328 64.6714 10.328L61.2307 21.6224L58.189 23.1183L59.3109 30.7227L53.7261 33.2658L51.6816 21.3232Z" fill="#231D4F"/>
<path d="M66.8821 30.8474L69.7493 21.4728L69.9487 21.8468L70.4973 28.8528L74.636 25.8858C74.7856 25.7695 74.877 25.6947 74.9103 25.6614C74.9435 25.6116 75.0183 25.5368 75.1347 25.437C75.1513 25.4038 75.1845 25.3706 75.2344 25.3373C75.3009 25.3041 75.3341 25.2791 75.3341 25.2625L78.0518 21.5975L75.2095 30.8474H80.6447L87.3765 8.88196H81.7667L74.661 18.0321L73.432 8.88196H65.1617L67.2062 11.9486L61.4219 30.8474H66.8821Z" fill="#231D4F"/>
<path d="M46.1967 3.4584C46.3946 3.06634 46.2722 2.58832 45.9101 2.3397C45.5481 2.09109 45.058 2.14846 44.7632 2.47399L27.5389 21.4912C27.306 21.7484 27.2465 22.1187 27.3872 22.4359C27.5278 22.7531 27.8422 22.9576 28.1892 22.9576H33.852L27.1442 36.1102C26.9445 36.5018 27.0653 36.9806 27.4268 37.2306C27.7884 37.4805 28.2791 37.4244 28.5748 37.0993L45.8754 18.0809C46.1091 17.8239 46.1692 17.4533 46.0288 17.1356C45.8883 16.818 45.5737 16.6131 45.2263 16.6131H39.5557L46.1967 3.4584Z" fill="url(#paint1_radial)" stroke="white" stroke-width="1.7548" stroke-linejoin="round"/>
<defs>
<radialGradient id="paint0_radial" cx="0" cy="0" r="1" gradientUnits="userSpaceOnUse" gradientTransform="translate(33.5121 -0.889706) rotate(87.3671) scale(51.9864 24.4263)">
<stop stop-color="#9186FF"/>
<stop offset="0.338694" stop-color="#6D61FF"/>
<stop offset="0.916248" stop-color="#574AFF"/>
</radialGradient>
<radialGradient id="paint1_radial" cx="0" cy="0" r="1" gradientUnits="userSpaceOnUse" gradientTransform="translate(33.5121 -0.889706) rotate(87.3671) scale(51.9864 24.4263)">
<stop stop-color="#9186FF"/>
<stop offset="0.338694" stop-color="#6D61FF"/>
<stop offset="0.916248" stop-color="#574AFF"/>
</radialGradient>
</defs>
</svg>
